<svg width="443" height="85" viewBox="0 0 443 85" fill="none" xmlns="http://www.w3.org/2000/svg">
<path d="M333.474 9.78875C334.456 7.20794 336.93 5.50208 339.692 5.50208V5.50208C344.369 5.50208 347.586 10.2018 345.893 14.5621L321.814 76.5799C320.163 80.8308 316.071 83.6316 311.511 83.6316H307.977C302.764 83.6316 298.188 80.1591 296.786 75.1378L279.911 14.7303C278.616 10.0944 282.102 5.50208 286.915 5.50208V5.50208C290.218 5.50208 293.106 7.72768 293.947 10.9213L309.459 69.8021C309.61 70.3748 310.407 70.417 310.617 69.8635L333.474 9.78875Z" fill="#181615"/>
<path d="M372.659 84.6219C366.644 84.6219 361.435 83.5215 357.033 81.3207C352.705 79.0465 349.367 75.8186 347.02 71.637C344.672 67.4554 343.498 62.4669 343.498 56.6714C343.498 50.8759 344.709 45.7773 347.13 41.3756C349.551 36.9006 352.815 33.4159 356.923 30.9217C361.105 28.4274 365.837 27.1803 371.119 27.1803C379.702 27.1803 386.011 30.1147 390.046 35.9836C394.154 41.7791 395.585 49.8121 394.337 60.0827H357.143C357.437 63.9708 359.014 67.0886 361.875 69.4362C364.736 71.7837 368.661 72.9575 373.65 72.9575C375.997 72.9575 378.345 72.444 380.692 71.4169C381.19 71.2059 381.672 70.9716 382.138 70.714C385.043 69.1103 388.909 68.7684 391.239 71.1311V71.1311C393.197 73.117 393.409 76.3083 391.312 78.1461C389.576 79.666 387.651 80.9442 385.534 81.9809C382.013 83.7416 377.721 84.6219 372.659 84.6219ZM371.339 37.3041C367.597 37.3041 364.516 38.4779 362.095 40.8254C359.674 43.173 358.134 46.3275 357.474 50.289H382.783C382.93 45.7406 381.939 42.4393 379.812 40.3852C377.684 38.3311 374.86 37.3041 371.339 37.3041Z" fill="#181615"/>
<path d="M427.799 84.6219C421.124 84.6219 415.915 82.7879 412.174 79.1198C408.506 75.4518 406.708 70.6467 406.782 64.7044L407.222 39.2848H403.37C400.271 39.2848 397.758 36.7722 397.758 33.6727V33.6727C397.758 30.5732 400.271 28.0606 403.37 28.0606H407.442L407.488 23.2317C407.523 19.5678 410.504 16.6163 414.168 16.6163V16.6163C417.907 16.6163 420.918 19.6857 420.846 23.4243L420.757 28.0606H433.302C436.401 28.0606 438.914 30.5732 438.914 33.6727V33.6727C438.914 36.7722 436.401 39.2848 433.302 39.2848H420.647L420.317 63.2739C420.243 66.2817 420.977 68.6659 422.518 70.4266C424.131 72.1139 426.516 72.9575 429.67 72.9575C431.358 72.9575 432.935 72.7374 434.402 72.2973V72.2973C436.934 71.5377 439.953 72.303 440.898 74.7715L441.603 76.6104C442.433 78.7781 441.844 81.3127 439.751 82.3165C438.761 82.7916 437.674 83.1933 436.493 83.5215C433.852 84.2551 430.954 84.6219 427.799 84.6219Z" fill="#181615"/>
<path d="M129.988 83.5215C124.706 83.5215 120.708 82.0909 117.993 79.2298C115.279 76.3688 113.922 72.2972 113.922 67.0152V7.81291C113.922 4.10568 116.927 1.10037 120.634 1.10037V1.10037C124.342 1.10037 127.347 4.10568 127.347 7.81291V65.9148C127.347 69.8763 129.181 71.8571 132.849 71.8571V71.8571C135.44 71.8571 138.488 72.9022 139.316 75.3575L139.795 76.7797C140.509 78.8986 139.778 81.2795 137.682 82.0589C137.234 82.2257 136.76 82.383 136.26 82.5311C134.279 83.1913 132.189 83.5215 129.988 83.5215Z" fill="#FF5233"/>
<path d="M151.665 26.9601C155.372 26.9601 158.378 29.9654 158.378 33.6727V75.8186C158.378 79.5258 155.372 82.5311 151.665 82.5311V82.5311C147.958 82.5311 144.953 79.5258 144.953 75.8186V33.6727C144.953 29.9654 147.958 26.9601 151.665 26.9601V26.9601ZM151.665 18.1568C149.024 18.1568 146.933 17.3498 145.393 15.7359C143.852 14.1219 143.082 12.1779 143.082 9.90369C143.082 7.6295 143.852 5.68543 145.393 4.07149C146.933 2.45755 149.024 1.65058 151.665 1.65058C154.306 1.65058 156.397 2.45755 157.938 4.07149C159.478 5.68543 160.248 7.6295 160.248 9.90369C160.248 12.1779 159.478 14.1219 157.938 15.7359C156.397 17.3498 154.306 18.1568 151.665 18.1568Z" fill="#FF5233"/>
<path d="M196.337 83.5215C187.9 83.5215 181.224 81.1005 176.309 76.2587C171.394 71.3435 168.936 64.521 168.936 55.791C168.936 49.9221 170.147 44.7502 172.568 40.2752C174.989 35.8001 178.363 32.3155 182.692 29.8212C187.02 27.3269 192.009 26.0798 197.657 26.0798C202.352 26.0798 206.461 26.9968 209.982 28.8308C212.054 29.9098 213.897 31.3443 215.511 33.1343C217.532 35.3744 216.772 38.7746 214.368 40.5979V40.5979C211.503 42.772 207.517 41.649 204.441 39.7845C204.344 39.7261 204.247 39.6696 204.15 39.6149C202.389 38.5878 200.225 38.0743 197.657 38.0743C193.329 38.0743 189.771 39.6883 186.983 42.9161C184.269 46.144 182.912 50.399 182.912 55.681C182.912 60.8162 184.122 64.7777 186.543 67.5654C189.037 70.2798 192.595 71.637 197.217 71.637C199.638 71.637 201.876 71.0868 203.93 69.9864C204.145 69.8751 204.356 69.7574 204.564 69.6334C207.633 67.8003 211.704 66.8079 214.495 69.0408V69.0408C216.818 70.8996 217.455 74.2748 215.408 76.4338C213.557 78.3855 211.455 79.9044 209.102 80.9905C205.287 82.6778 201.032 83.5215 196.337 83.5215Z" fill="#FF5233"/>
<path d="M231.458 82.5311C227.751 82.5311 224.746 79.5258 224.746 75.8186V7.81292C224.746 4.10568 227.751 1.10037 231.458 1.10037V1.10037C235.165 1.10037 238.171 4.10568 238.171 7.81291V49.7387L262.138 25.1548C263.231 24.0341 264.73 23.4021 266.295 23.4021V23.4021C271.425 23.4021 274.034 29.5702 270.459 33.251L251.242 53.0416C250.859 53.4353 250.943 54.0816 251.386 54.4049C252.704 55.3661 253.875 56.5984 254.897 58.1019L260.619 66.6851C263.04 70.3532 266.268 72.1872 270.303 72.1872V72.1872C273.445 72.1872 277.014 73.4709 277.947 76.4712L278.031 76.7418C278.729 78.9859 277.851 81.5038 275.638 82.2962C275.006 82.5229 274.364 82.7112 273.714 82.8612C271.88 83.3014 269.899 83.5215 267.772 83.5215C263.664 83.4481 260.179 82.6411 257.318 81.1005C254.53 79.56 251.963 76.9923 249.615 73.3976L243.783 64.8144C241.802 61.7332 239.931 59.6425 238.171 58.542V75.8186C238.171 79.5258 235.165 82.5311 231.458 82.5311V82.5311Z" fill="#FF5233"/>
<path d="M104.379 62.1061C107.231 64.2535 108.052 68.2823 105.652 70.9248C102.947 73.9018 99.7022 76.3366 95.9174 78.2291C90.1818 81.0971 83.7487 82.5311 76.618 82.5311C68.1697 82.5311 60.9227 80.9462 54.8771 77.7763C48.8315 74.6063 44.181 70.0779 40.9257 64.1909C37.7479 58.2284 36.159 51.1338 36.159 42.9071C36.159 34.3785 37.9417 26.9066 41.507 20.4913C45.0724 14.076 50.0329 9.05692 56.3885 5.43415C62.7441 1.81138 70.1074 0 78.4782 0C85.6089 0 91.6933 1.3208 96.7312 3.9624C100.021 5.66142 102.959 7.92245 105.544 10.7455C108.025 13.4551 107.15 17.6242 104.142 19.7332V19.7332C100.803 22.0745 96.2543 20.8338 93.1487 18.1902C92.0688 17.271 90.899 16.4908 89.6393 15.8496C86.229 14.1137 82.4698 13.2457 78.3619 13.2457C73.0914 13.2457 68.4409 14.4911 64.4105 16.9817C60.3801 19.4724 57.2023 22.9442 54.8771 27.3972C52.6294 31.7747 51.5055 36.8692 51.5055 42.6807C51.5055 51.0584 53.7145 57.5869 58.1324 62.2663C62.6279 66.9457 68.8672 69.2854 76.8505 69.2854C81.2685 69.2854 85.3376 68.3042 89.058 66.3419C90.5626 65.5483 91.9532 64.588 93.2296 63.461C96.3511 60.7052 101.053 59.6015 104.379 62.1061V62.1061Z" fill="#FF5233"/>
<ellipse cx="28.2632" cy="75.0283" rx="7.50283" ry="10.7183" transform="rotate(-90 28.2632 75.0283)" fill="#FF5233"/>
<ellipse cx="28.2632" cy="7.50288" rx="7.50283" ry="10.7183" transform="rotate(-90 28.2632 7.50288)" fill="#FF5233"/>
<ellipse cx="15.7075" cy="53.5918" rx="10.7183" ry="15.3119" transform="rotate(-90 15.7075 53.5918)" fill="#FF5233"/>
<ellipse cx="15.7075" cy="28.9395" rx="10.7183" ry="15.3119" transform="rotate(-90 15.7075 28.9395)" fill="#FF5233"/>
</svg>
